<svg xmlns:xlink="http://www.w3.org/1999/xlink" xmlns="http://www.w3.org/2000/svg" width="500"
     viewBox="0 0 375 374.999991" height="200" preserveAspectRatio="xMidYMid meet" version="1.0">
    <defs>
        <g/>
        <clipPath id="eba588e744">
            <path d="M 77.714844 309.734375 L 375 309.734375 L 375 346.808594 L 77.714844 346.808594 Z M 77.714844 309.734375 "
                  clip-rule="nonzero"/>
        </clipPath>
    </defs>
    <g fill="#000000" fill-opacity="1">
        <g transform="translate(85.16553, 203.114603)">
            <g>
                <path d="M 46.71875 1.8125 C 33.875 1.8125 24.175781 -0.671875 17.625 -5.640625 C 11.082031 -10.609375 7.8125 -16.546875 7.8125 -23.453125 C 7.8125 -28.054688 9.207031 -31.507812 12 -33.8125 C 14.789062 -36.113281 18.425781 -37.265625 22.90625 -37.265625 C 23.03125 -24.054688 25.269531 -14.539062 29.625 -8.71875 C 33.988281 -2.90625 40.351562 0 48.71875 0 C 56.351562 0 62.5625 -2.179688 67.34375 -6.546875 C 72.132812 -10.910156 74.53125 -17.332031 74.53125 -25.8125 C 74.53125 -31.382812 73.4375 -35.898438 71.25 -39.359375 C 69.070312 -42.816406 65.738281 -45.90625 61.25 -48.625 C 56.769531 -51.351562 50.957031 -54.351562 43.8125 -57.625 C 37.875 -60.289062 32.359375 -63.289062 27.265625 -66.625 C 22.179688 -69.957031 18.09375 -74.046875 15 -78.890625 C 11.90625 -83.742188 10.359375 -89.867188 10.359375 -97.265625 C 10.359375 -108.296875 13.992188 -116.78125 21.265625 -122.71875 C 28.535156 -128.65625 38.414062 -131.625 50.90625 -131.625 C 61.8125 -131.625 70.503906 -129.5625 76.984375 -125.4375 C 83.472656 -121.320312 86.71875 -116.414062 86.71875 -110.71875 C 86.71875 -106.957031 85.234375 -103.957031 82.265625 -101.71875 C 79.296875 -99.476562 75.265625 -98.359375 70.171875 -98.359375 C 70.171875 -108.773438 68.5625 -116.585938 65.34375 -121.796875 C 62.132812 -127.015625 56.773438 -129.625 49.265625 -129.625 C 42.835938 -129.625 37.503906 -127.710938 33.265625 -123.890625 C 29.023438 -120.078125 26.90625 -114.050781 26.90625 -105.8125 C 26.90625 -100.226562 27.960938 -95.617188 30.078125 -91.984375 C 32.203125 -88.347656 35.535156 -85.132812 40.078125 -82.34375 C 44.628906 -79.5625 50.421875 -76.597656 57.453125 -73.453125 C 64.234375 -70.535156 70.195312 -67.472656 75.34375 -64.265625 C 80.5 -61.054688 84.53125 -57.144531 87.4375 -52.53125 C 90.351562 -47.925781 91.8125 -42.113281 91.8125 -35.09375 C 91.8125 -23.8125 87.898438 -14.835938 80.078125 -8.171875 C 72.265625 -1.515625 61.144531 1.8125 46.71875 1.8125 Z M 46.71875 1.8125 "/>
            </g>
        </g>
    </g>
    <g fill="#000000" fill-opacity="1">
        <g transform="translate(0.0000045, 203.114603)">
            <g>
                <path d="M 6.359375 0 L 6.359375 -1.8125 L 15.265625 -1.8125 C 19.390625 -1.8125 22.632812 -2.78125 25 -4.71875 C 27.363281 -6.664062 28.546875 -9.878906 28.546875 -14.359375 L 28.546875 -115.984375 C 28.546875 -120.222656 27.363281 -123.28125 25 -125.15625 C 22.632812 -127.039062 19.390625 -127.984375 15.265625 -127.984375 L 6.359375 -127.984375 L 6.359375 -129.796875 L 46.90625 -129.796875 L 90.71875 -23.265625 L 128.34375 -129.796875 L 164.890625 -129.796875 L 164.890625 -127.984375 L 161.078125 -127.984375 C 156.710938 -127.984375 153.378906 -127.015625 151.078125 -125.078125 C 148.773438 -123.140625 147.625 -119.867188 147.625 -115.265625 L 147.625 -14.546875 C 147.625 -9.941406 148.773438 -6.664062 151.078125 -4.71875 C 153.378906 -2.78125 156.710938 -1.8125 161.078125 -1.8125 L 164.890625 -1.8125 L 164.890625 0 L 113.8125 0 L 113.8125 -1.8125 L 114.71875 -1.8125 C 118.59375 -1.8125 121.648438 -2.75 123.890625 -4.625 C 126.128906 -6.507812 127.25 -9.695312 127.25 -14.1875 L 127.25 -121.078125 L 84.71875 0 L 79.078125 0 L 30.359375 -119.078125 L 30.359375 -14.546875 C 30.359375 -9.941406 31.566406 -6.664062 33.984375 -4.71875 C 36.410156 -2.78125 40.050781 -1.8125 44.90625 -1.8125 L 49.265625 -1.8125 L 49.265625 0 Z M 6.359375 0 "/>
            </g>
        </g>
    </g>
    <g fill="#000000" fill-opacity="1">
        <g transform="translate(186.730118, 195.976476)">
            <g>
                <path d="M 5.578125 0 L 9.371094 0 L 9.371094 -13.820312 C 12.289062 -13.820312 14.324219 -12.011719 14.324219 -9.398438 L 14.574219 -9.398438 L 14.574219 -14.070312 L 0.375 -14.070312 L 0.375 -9.398438 L 0.628906 -9.398438 C 0.628906 -12.011719 2.664062 -13.820312 5.578125 -13.820312 Z M 5.578125 0 "/>
            </g>
        </g>
    </g>
    <g fill="#000000" fill-opacity="1">
        <g transform="translate(201.67724, 195.976476)">
            <g>
                <path d="M 6.207031 0.25 C 8.894531 0.25 10.554688 -1.609375 11.082031 -4.046875 L 10.804688 -4.097656 C 10.277344 -2.511719 9.070312 -1.40625 7.664062 -1.40625 C 5.753906 -1.40625 4.371094 -3.191406 4.246094 -6.382812 L 10.78125 -6.382812 C 10.78125 -9.019531 8.894531 -10.527344 6.207031 -10.527344 C 3.140625 -10.527344 0.628906 -8.117188 0.628906 -5.152344 C 0.628906 -2.160156 3.140625 0.25 6.207031 0.25 Z M 4.246094 -6.632812 C 4.273438 -8.667969 5.074219 -10.253906 6.054688 -10.253906 C 7.035156 -10.253906 7.414062 -8.667969 7.414062 -6.632812 Z M 4.246094 -6.632812 "/>
            </g>
        </g>
    </g>
    <g fill="#000000" fill-opacity="1">
        <g transform="translate(213.383732, 195.976476)">
            <g>
                <path d="M 6.207031 0.25 C 8.894531 0.25 10.554688 -1.609375 11.082031 -4.046875 L 10.804688 -4.097656 C 10.277344 -2.511719 9.070312 -1.40625 7.664062 -1.40625 C 5.679688 -1.40625 4.246094 -3.191406 4.246094 -6.632812 C 4.246094 -8.746094 4.824219 -10.253906 6.230469 -10.253906 C 7.210938 -10.253906 7.816406 -9.648438 7.816406 -8.667969 C 7.816406 -7.488281 7.011719 -7.289062 7.011719 -7.289062 C 7.011719 -6.757812 7.738281 -6.03125 8.644531 -6.03125 C 9.800781 -6.03125 10.304688 -6.910156 10.304688 -7.789062 C 10.304688 -9.324219 8.417969 -10.527344 6.054688 -10.527344 C 3.066406 -10.453125 0.628906 -8.066406 0.628906 -5.152344 C 0.628906 -2.160156 3.140625 0.25 6.207031 0.25 Z M 6.207031 0.25 "/>
            </g>
        </g>
    </g>
    <g fill="#000000" fill-opacity="1">
        <g transform="translate(225.090224, 195.976476)">
            <g>
                <path d="M 1.257812 0 L 4.925781 0 L 4.925781 -7.914062 C 5.226562 -8.34375 5.929688 -9.070312 6.132812 -9.246094 C 7.0625 -10.050781 7.992188 -9.902344 7.992188 -8.519531 L 7.992188 0 L 11.660156 0 L 11.660156 -8.441406 C 11.660156 -9.574219 10.503906 -10.65625 8.769531 -10.65625 C 7.085938 -10.65625 5.679688 -9.324219 4.925781 -8.34375 L 4.925781 -15.578125 L 1.257812 -15.578125 Z M 1.257812 0 "/>
            </g>
        </g>
    </g>
    <g fill="#000000" fill-opacity="1">
        <g transform="translate(238.002527, 195.976476)">
            <g>
                <path d="M 1.257812 0 L 4.925781 0 L 4.925781 -7.914062 C 5.226562 -8.34375 5.929688 -9.070312 6.132812 -9.246094 C 7.0625 -10.050781 7.992188 -9.902344 7.992188 -8.519531 L 7.992188 0 L 11.660156 0 L 11.660156 -8.441406 C 11.660156 -9.574219 10.503906 -10.65625 8.769531 -10.65625 C 7.085938 -10.65625 5.679688 -9.324219 4.925781 -8.34375 L 4.925781 -10.253906 L 1.257812 -10.253906 Z M 1.257812 0 "/>
            </g>
        </g>
    </g>
    <g fill="#000000" fill-opacity="1">
        <g transform="translate(250.91483, 195.976476)">
            <g>
                <path d="M 6.183594 0.25 C 9.246094 0.25 11.734375 -2.136719 11.734375 -5.125 C 11.734375 -8.089844 9.246094 -10.480469 6.183594 -10.480469 C 3.117188 -10.480469 0.628906 -8.089844 0.628906 -5.125 C 0.628906 -2.136719 3.117188 0.25 6.183594 0.25 Z M 6.183594 0 C 4.800781 0 4.296875 -2.210938 4.296875 -5.125 C 4.296875 -8.042969 4.800781 -10.253906 6.183594 -10.253906 C 7.488281 -10.253906 8.066406 -8.042969 8.066406 -5.125 C 8.066406 -2.210938 7.589844 0 6.183594 0 Z M 6.183594 0 "/>
            </g>
        </g>
    </g>
    <g fill="#000000" fill-opacity="1">
        <g transform="translate(263.27447, 195.976476)">
            <g>
                <path d="M 1.257812 0 L 4.925781 0 L 4.925781 -15.578125 L 1.257812 -15.578125 Z M 1.257812 0 "/>
            </g>
        </g>
    </g>
    <g fill="#000000" fill-opacity="1">
        <g transform="translate(269.454291, 195.976476)">
            <g>
                <path d="M 6.183594 0.25 C 9.246094 0.25 11.734375 -2.136719 11.734375 -5.125 C 11.734375 -8.089844 9.246094 -10.480469 6.183594 -10.480469 C 3.117188 -10.480469 0.628906 -8.089844 0.628906 -5.125 C 0.628906 -2.136719 3.117188 0.25 6.183594 0.25 Z M 6.183594 0 C 4.800781 0 4.296875 -2.210938 4.296875 -5.125 C 4.296875 -8.042969 4.800781 -10.253906 6.183594 -10.253906 C 7.488281 -10.253906 8.066406 -8.042969 8.066406 -5.125 C 8.066406 -2.210938 7.589844 0 6.183594 0 Z M 6.183594 0 "/>
            </g>
        </g>
    </g>
    <g fill="#000000" fill-opacity="1">
        <g transform="translate(281.813931, 195.976476)">
            <g>
                <path d="M 5.78125 4.371094 C 9.675781 4.246094 11.988281 1.859375 11.988281 -0.0507812 C 11.988281 -2.6875 9.976562 -3.265625 7.488281 -3.265625 C 6.382812 -3.265625 5.25 -3.167969 3.441406 -3.167969 C 2.714844 -3.167969 2.460938 -3.34375 2.460938 -3.71875 C 2.460938 -4.097656 2.890625 -4.523438 3.441406 -4.824219 C 4.195312 -4.496094 5.152344 -4.347656 6.207031 -4.347656 C 9.046875 -4.347656 11.082031 -5.703125 11.082031 -7.363281 C 11.082031 -9.019531 9.273438 -10.328125 6.632812 -10.503906 C 6.632812 -10.804688 6.960938 -11.660156 8.089844 -11.660156 C 9.597656 -11.660156 9.597656 -10.503906 9.597656 -10.503906 C 10.027344 -10.503906 11.082031 -11.183594 11.082031 -12.339844 C 11.082031 -13.316406 10.027344 -14.070312 8.921875 -14.070312 C 6.359375 -14.070312 6.382812 -11.15625 6.433594 -10.503906 L 6.207031 -10.503906 C 3.316406 -10.503906 1.28125 -9.097656 1.28125 -7.363281 C 1.28125 -6.457031 2.0625 -5.527344 3.167969 -4.949219 C 2.6875 -4.625 0.652344 -3.34375 0.652344 -1.808594 C 0.652344 -1.003906 1.28125 0 3.015625 0 C 6.683594 0 10.125 0.125 10.125 1.53125 C 10.125 3.492188 7.289062 4.121094 5.828125 4.121094 C 4.496094 4.121094 2.992188 3.617188 2.992188 2.488281 C 2.992188 1.53125 3.820312 1.808594 3.820312 1.808594 C 3.820312 1.808594 3.46875 0.226562 2.160156 0.226562 C 1.03125 0.226562 0.628906 1.082031 0.628906 1.734375 C 0.628906 2.136719 0.753906 4.523438 5.78125 4.371094 Z M 6.207031 -4.597656 C 4.875 -4.597656 4.421875 -5.730469 4.421875 -7.363281 C 4.421875 -9.070312 4.875 -10.253906 6.207031 -10.253906 C 7.386719 -10.253906 7.941406 -9.070312 7.941406 -7.363281 C 7.941406 -5.730469 7.464844 -4.597656 6.207031 -4.597656 Z M 6.207031 -4.597656 "/>
            </g>
        </g>
    </g>
    <g fill="#000000" fill-opacity="1">
        <g transform="translate(294.424784, 195.976476)">
            <g>
                <path d="M 3.214844 -11.632812 C 4.320312 -11.632812 5.203125 -12.515625 5.203125 -13.621094 C 5.203125 -14.699219 4.320312 -15.578125 3.214844 -15.578125 C 2.136719 -15.578125 1.257812 -14.699219 1.257812 -13.621094 C 1.257812 -12.515625 2.136719 -11.632812 3.214844 -11.632812 Z M 1.382812 0 L 5.050781 0 L 5.050781 -10.226562 L 1.382812 -10.253906 Z M 1.382812 0 "/>
            </g>
        </g>
    </g>
    <g fill="#000000" fill-opacity="1">
        <g transform="translate(300.88094, 195.976476)">
            <g>
                <path d="M 6.207031 0.25 C 8.894531 0.25 10.554688 -1.609375 11.082031 -4.046875 L 10.804688 -4.097656 C 10.277344 -2.511719 9.070312 -1.40625 7.664062 -1.40625 C 5.753906 -1.40625 4.371094 -3.191406 4.246094 -6.382812 L 10.78125 -6.382812 C 10.78125 -9.019531 8.894531 -10.527344 6.207031 -10.527344 C 3.140625 -10.527344 0.628906 -8.117188 0.628906 -5.152344 C 0.628906 -2.160156 3.140625 0.25 6.207031 0.25 Z M 4.246094 -6.632812 C 4.273438 -8.667969 5.074219 -10.253906 6.054688 -10.253906 C 7.035156 -10.253906 7.414062 -8.667969 7.414062 -6.632812 Z M 4.246094 -6.632812 "/>
            </g>
        </g>
    </g>
    <g fill="#000000" fill-opacity="1">
        <g transform="translate(312.587432, 195.976476)">
            <g>
                <path d="M 5.78125 0.25 C 8.265625 0.25 10.90625 -1.054688 10.90625 -2.8125 C 10.90625 -5.578125 4.121094 -6.433594 4.121094 -8.746094 C 4.121094 -9.824219 5.277344 -10.226562 6.082031 -10.226562 C 7.011719 -10.226562 7.765625 -9.726562 7.765625 -8.921875 C 7.765625 -7.890625 7.011719 -7.789062 7.011719 -7.789062 C 7.011719 -7.085938 7.789062 -6.433594 8.695312 -6.433594 C 9.398438 -6.433594 10.328125 -6.835938 10.328125 -7.992188 C 10.328125 -9.421875 8.34375 -10.480469 6.03125 -10.480469 C 3.695312 -10.480469 1.03125 -9.726562 1.03125 -7.789062 C 1.03125 -4.898438 7.539062 -3.945312 7.539062 -1.457031 C 7.539062 -0.25 6.382812 0 5.652344 0 C 4.773438 0 3.769531 -0.476562 3.769531 -1.734375 C 3.769531 -2.414062 4.019531 -2.8125 4.546875 -2.8125 C 4.546875 -3.695312 3.566406 -4.496094 2.488281 -4.496094 C 1.53125 -4.496094 0.753906 -3.871094 0.753906 -2.8125 C 0.753906 -1.003906 3.316406 0.25 5.78125 0.25 Z M 5.78125 0.25 "/>
            </g>
        </g>
    </g>
    <g fill="#000000" fill-opacity="1">
        <g transform="translate(155.678154, 66.612807)">
            <g>
                <path d="M 0.796875 0 L 0.796875 -1.140625 L 3.078125 -3.609375 C 3.597656 -4.171875 4.023438 -4.664062 4.359375 -5.09375 C 4.691406 -5.53125 4.953125 -5.9375 5.140625 -6.3125 C 5.328125 -6.6875 5.457031 -7.054688 5.53125 -7.421875 C 5.601562 -7.785156 5.640625 -8.171875 5.640625 -8.578125 C 5.640625 -9.515625 5.507812 -10.179688 5.25 -10.578125 C 4.988281 -10.984375 4.570312 -11.1875 4 -11.1875 C 3.382812 -11.1875 2.945312 -10.957031 2.6875 -10.5 C 2.4375 -10.050781 2.3125 -9.296875 2.3125 -8.234375 C 1.9375 -8.234375 1.617188 -8.304688 1.359375 -8.453125 C 1.097656 -8.609375 0.96875 -8.894531 0.96875 -9.3125 C 0.96875 -9.894531 1.234375 -10.378906 1.765625 -10.765625 C 2.296875 -11.148438 3.046875 -11.34375 4.015625 -11.34375 C 5.046875 -11.34375 5.835938 -11.101562 6.390625 -10.625 C 6.941406 -10.144531 7.21875 -9.492188 7.21875 -8.671875 C 7.21875 -8.347656 7.160156 -8.019531 7.046875 -7.6875 C 6.941406 -7.351562 6.742188 -6.984375 6.453125 -6.578125 C 6.160156 -6.179688 5.75 -5.707031 5.21875 -5.15625 C 4.695312 -4.613281 4.019531 -3.957031 3.1875 -3.1875 L 1.09375 -1.25 L 6.03125 -1.25 C 6.53125 -1.25 6.878906 -1.335938 7.078125 -1.515625 C 7.273438 -1.691406 7.394531 -2.019531 7.4375 -2.5 L 7.453125 -2.71875 L 7.609375 -2.71875 L 7.515625 0 Z M 0.796875 0 "/>
            </g>
        </g>
    </g>
    <g fill="#000000" fill-opacity="1">
        <g transform="translate(38.318876, 236.87414)">
            <g>
                <path d="M 0.578125 0 L 0.578125 -0.859375 L 0.9375 -0.859375 C 1.195312 -0.859375 1.410156 -0.894531 1.578125 -0.96875 C 1.753906 -1.039062 1.890625 -1.179688 1.984375 -1.390625 C 2.085938 -1.609375 2.140625 -1.921875 2.140625 -2.328125 L 2.140625 -12.609375 C 2.140625 -13.023438 2.082031 -13.328125 1.96875 -13.515625 C 1.863281 -13.710938 1.71875 -13.84375 1.53125 -13.90625 C 1.351562 -13.96875 1.15625 -14 0.9375 -14 L 0.578125 -14 L 0.578125 -14.84375 L 5.21875 -14.84375 C 6.664062 -14.84375 7.753906 -14.554688 8.484375 -13.984375 C 9.222656 -13.410156 9.59375 -12.5 9.59375 -11.25 C 9.59375 -10.644531 9.488281 -10.125 9.28125 -9.6875 C 9.082031 -9.25 8.816406 -8.882812 8.484375 -8.59375 C 8.148438 -8.3125 7.785156 -8.09375 7.390625 -7.9375 L 7.390625 -7.84375 C 7.921875 -7.757812 8.390625 -7.5625 8.796875 -7.25 C 9.203125 -6.9375 9.515625 -6.507812 9.734375 -5.96875 C 9.953125 -5.425781 10.0625 -4.773438 10.0625 -4.015625 C 10.0625 -2.671875 9.703125 -1.664062 8.984375 -1 C 8.273438 -0.332031 7.179688 0 5.703125 0 Z M 5.546875 -1.015625 C 6.421875 -1.015625 7.054688 -1.242188 7.453125 -1.703125 C 7.847656 -2.160156 8.046875 -2.953125 8.046875 -4.078125 C 8.046875 -4.796875 7.960938 -5.390625 7.796875 -5.859375 C 7.640625 -6.335938 7.378906 -6.691406 7.015625 -6.921875 C 6.660156 -7.160156 6.179688 -7.28125 5.578125 -7.28125 L 4.03125 -7.28125 L 4.03125 -1.015625 Z M 5.109375 -8.296875 C 5.722656 -8.296875 6.207031 -8.398438 6.5625 -8.609375 C 6.925781 -8.816406 7.1875 -9.128906 7.34375 -9.546875 C 7.507812 -9.960938 7.59375 -10.488281 7.59375 -11.125 C 7.59375 -12.15625 7.394531 -12.863281 7 -13.25 C 6.601562 -13.632812 5.96875 -13.828125 5.09375 -13.828125 L 4.03125 -13.828125 L 4.03125 -8.296875 Z M 5.109375 -8.296875 "/>
            </g>
        </g>
    </g>
    <g fill="#000000" fill-opacity="1">
        <g transform="translate(49.316304, 236.87414)">
            <g>
                <path d="M 0.359375 0 L 0.359375 -0.859375 L 0.5625 -0.859375 C 0.820312 -0.859375 1.046875 -0.890625 1.234375 -0.953125 C 1.429688 -1.023438 1.585938 -1.164062 1.703125 -1.375 C 1.816406 -1.582031 1.875 -1.882812 1.875 -2.28125 L 1.875 -8.84375 C 1.875 -9.257812 1.820312 -9.570312 1.71875 -9.78125 C 1.625 -9.988281 1.488281 -10.125 1.3125 -10.1875 C 1.144531 -10.257812 0.929688 -10.296875 0.671875 -10.296875 L 0.453125 -10.296875 L 0.453125 -11.140625 L 3.65625 -11.140625 L 3.65625 -2.390625 C 3.65625 -1.960938 3.707031 -1.632812 3.8125 -1.40625 C 3.914062 -1.1875 4.066406 -1.039062 4.265625 -0.96875 C 4.472656 -0.894531 4.707031 -0.859375 4.96875 -0.859375 L 5.171875 -0.859375 L 5.171875 0 Z M 2.6875 -13.328125 C 2.375 -13.328125 2.117188 -13.414062 1.921875 -13.59375 C 1.734375 -13.78125 1.640625 -14.085938 1.640625 -14.515625 C 1.640625 -14.960938 1.734375 -15.269531 1.921875 -15.4375 C 2.117188 -15.613281 2.375 -15.703125 2.6875 -15.703125 C 2.988281 -15.703125 3.242188 -15.613281 3.453125 -15.4375 C 3.660156 -15.269531 3.765625 -14.960938 3.765625 -14.515625 C 3.765625 -14.085938 3.660156 -13.78125 3.453125 -13.59375 C 3.242188 -13.414062 2.988281 -13.328125 2.6875 -13.328125 Z M 2.6875 -13.328125 "/>
            </g>
        </g>
    </g>
    <g fill="#000000" fill-opacity="1">
        <g transform="translate(54.721463, 236.87414)">
            <g>
                <path d="M 0.484375 0 L 0.484375 -0.859375 L 0.546875 -0.859375 C 0.796875 -0.859375 1.015625 -0.890625 1.203125 -0.953125 C 1.398438 -1.023438 1.554688 -1.164062 1.671875 -1.375 C 1.785156 -1.59375 1.84375 -1.914062 1.84375 -2.34375 L 1.84375 -8.875 C 1.84375 -9.289062 1.785156 -9.597656 1.671875 -9.796875 C 1.566406 -10.003906 1.414062 -10.140625 1.21875 -10.203125 C 1.03125 -10.265625 0.8125 -10.296875 0.5625 -10.296875 L 0.5 -10.296875 L 0.5 -11.140625 L 3.28125 -11.140625 L 3.5625 -8.90625 L 3.625 -8.90625 C 3.769531 -9.34375 3.945312 -9.75 4.15625 -10.125 C 4.363281 -10.5 4.625 -10.796875 4.9375 -11.015625 C 5.25 -11.242188 5.628906 -11.359375 6.078125 -11.359375 C 6.628906 -11.359375 7.039062 -11.210938 7.3125 -10.921875 C 7.582031 -10.640625 7.71875 -10.265625 7.71875 -9.796875 C 7.71875 -9.378906 7.582031 -9.046875 7.3125 -8.796875 C 7.050781 -8.546875 6.640625 -8.421875 6.078125 -8.421875 C 6.078125 -8.804688 6.046875 -9.117188 5.984375 -9.359375 C 5.929688 -9.597656 5.84375 -9.769531 5.71875 -9.875 C 5.601562 -9.988281 5.4375 -10.046875 5.21875 -10.046875 C 4.96875 -10.046875 4.742188 -9.910156 4.546875 -9.640625 C 4.359375 -9.378906 4.195312 -9.035156 4.0625 -8.609375 C 3.9375 -8.191406 3.84375 -7.726562 3.78125 -7.21875 C 3.71875 -6.71875 3.6875 -6.222656 3.6875 -5.734375 L 3.6875 -2.25 C 3.6875 -1.84375 3.738281 -1.539062 3.84375 -1.34375 C 3.957031 -1.144531 4.109375 -1.015625 4.296875 -0.953125 C 4.492188 -0.890625 4.710938 -0.859375 4.953125 -0.859375 L 5.34375 -0.859375 L 5.34375 0 Z M 0.484375 0 "/>
            </g>
        </g>
    </g>
    <g fill="#000000" fill-opacity="1">
        <g transform="translate(62.683678, 236.87414)">
            <g>
                <path d="M 3.890625 0.203125 C 3.109375 0.203125 2.523438 -0.0351562 2.140625 -0.515625 C 1.765625 -0.992188 1.578125 -1.828125 1.578125 -3.015625 L 1.578125 -10.1875 L 0.3125 -10.1875 L 0.3125 -10.828125 C 0.632812 -10.898438 0.90625 -11 1.125 -11.125 C 1.34375 -11.25 1.535156 -11.421875 1.703125 -11.640625 C 1.867188 -11.847656 2.003906 -12.097656 2.109375 -12.390625 C 2.222656 -12.679688 2.320312 -13.117188 2.40625 -13.703125 L 3.375 -13.703125 L 3.375 -11.140625 L 5.515625 -11.140625 L 5.515625 -10.1875 L 3.375 -10.1875 L 3.375 -3 C 3.375 -2.25 3.460938 -1.707031 3.640625 -1.375 C 3.816406 -1.050781 4.109375 -0.890625 4.515625 -0.890625 C 4.742188 -0.890625 4.945312 -0.90625 5.125 -0.9375 C 5.3125 -0.96875 5.492188 -1.007812 5.671875 -1.0625 L 5.671875 -0.109375 C 5.492188 -0.0351562 5.25 0.03125 4.9375 0.09375 C 4.632812 0.164062 4.285156 0.203125 3.890625 0.203125 Z M 3.890625 0.203125 "/>
            </g>
        </g>
    </g>
    <g fill="#000000" fill-opacity="1">
        <g transform="translate(68.733299, 236.87414)">
            <g>
                <path d="M 0.296875 0 L 0.296875 -0.859375 L 0.4375 -0.859375 C 0.675781 -0.859375 0.890625 -0.890625 1.078125 -0.953125 C 1.273438 -1.023438 1.429688 -1.164062 1.546875 -1.375 C 1.660156 -1.59375 1.71875 -1.914062 1.71875 -2.34375 L 1.71875 -13.53125 C 1.71875 -13.945312 1.65625 -14.253906 1.53125 -14.453125 C 1.414062 -14.660156 1.257812 -14.796875 1.0625 -14.859375 C 0.863281 -14.921875 0.65625 -14.953125 0.4375 -14.953125 L 0.296875 -14.953125 L 0.296875 -15.8125 L 3.53125 -15.8125 L 3.53125 -11.046875 C 3.53125 -10.816406 3.523438 -10.59375 3.515625 -10.375 C 3.515625 -10.15625 3.503906 -9.957031 3.484375 -9.78125 C 3.472656 -9.613281 3.46875 -9.5 3.46875 -9.4375 L 3.53125 -9.4375 C 3.675781 -9.769531 3.859375 -10.082031 4.078125 -10.375 C 4.296875 -10.664062 4.570312 -10.898438 4.90625 -11.078125 C 5.25 -11.265625 5.660156 -11.359375 6.140625 -11.359375 C 7.023438 -11.359375 7.695312 -11.03125 8.15625 -10.375 C 8.625 -9.726562 8.859375 -8.691406 8.859375 -7.265625 L 8.859375 -2.34375 C 8.859375 -1.914062 8.910156 -1.59375 9.015625 -1.375 C 9.117188 -1.164062 9.257812 -1.023438 9.4375 -0.953125 C 9.625 -0.890625 9.84375 -0.859375 10.09375 -0.859375 L 10.125 -0.859375 L 10.125 0 L 7.046875 0 L 7.046875 -7.21875 C 7.046875 -8.113281 6.921875 -8.8125 6.671875 -9.3125 C 6.421875 -9.8125 5.992188 -10.0625 5.390625 -10.0625 C 4.953125 -10.0625 4.59375 -9.921875 4.3125 -9.640625 C 4.039062 -9.367188 3.84375 -8.976562 3.71875 -8.46875 C 3.59375 -7.96875 3.53125 -7.367188 3.53125 -6.671875 L 3.53125 -2.25 C 3.53125 -1.832031 3.585938 -1.523438 3.703125 -1.328125 C 3.816406 -1.140625 3.972656 -1.015625 4.171875 -0.953125 C 4.367188 -0.890625 4.585938 -0.859375 4.828125 -0.859375 L 4.859375 -0.859375 L 4.859375 0 Z M 0.296875 0 "/>
            </g>
        </g>
    </g>
    <g fill="#000000" fill-opacity="1">
        <g transform="translate(79.314941, 236.87414)">
            <g/>
        </g>
    </g>
    <g fill="#000000" fill-opacity="1">
        <g transform="translate(83.930114, 236.87414)">
            <g>
                <path d="M 6.203125 0.203125 C 5.023438 0.203125 4.039062 -0.113281 3.25 -0.75 C 2.46875 -1.382812 1.882812 -2.273438 1.5 -3.421875 C 1.113281 -4.578125 0.921875 -5.925781 0.921875 -7.46875 C 0.921875 -9.007812 1.113281 -10.347656 1.5 -11.484375 C 1.882812 -12.617188 2.46875 -13.5 3.25 -14.125 C 4.039062 -14.757812 5.03125 -15.078125 6.21875 -15.078125 C 7.34375 -15.078125 8.296875 -14.757812 9.078125 -14.125 C 9.859375 -13.5 10.453125 -12.613281 10.859375 -11.46875 C 11.273438 -10.320312 11.484375 -8.976562 11.484375 -7.4375 C 11.484375 -5.90625 11.273438 -4.566406 10.859375 -3.421875 C 10.453125 -2.273438 9.859375 -1.382812 9.078125 -0.75 C 8.296875 -0.113281 7.335938 0.203125 6.203125 0.203125 Z M 6.203125 -0.890625 C 6.992188 -0.890625 7.625 -1.148438 8.09375 -1.671875 C 8.5625 -2.191406 8.894531 -2.941406 9.09375 -3.921875 C 9.300781 -4.898438 9.40625 -6.070312 9.40625 -7.4375 C 9.40625 -8.832031 9.300781 -10.015625 9.09375 -10.984375 C 8.894531 -11.953125 8.5625 -12.691406 8.09375 -13.203125 C 7.632812 -13.710938 7.007812 -13.96875 6.21875 -13.96875 C 5.082031 -13.96875 4.257812 -13.394531 3.75 -12.25 C 3.25 -11.113281 3 -9.507812 3 -7.4375 C 3 -6.070312 3.109375 -4.898438 3.328125 -3.921875 C 3.546875 -2.941406 3.890625 -2.191406 4.359375 -1.671875 C 4.835938 -1.148438 5.453125 -0.890625 6.203125 -0.890625 Z M 6.203125 -0.890625 "/>
            </g>
        </g>
    </g>
    <g fill="#000000" fill-opacity="1">
        <g transform="translate(96.341196, 236.87414)">
            <g>
                <path d="M 0.421875 0 L 0.421875 -0.859375 L 0.671875 -0.859375 C 0.890625 -0.859375 1.097656 -0.890625 1.296875 -0.953125 C 1.492188 -1.023438 1.65625 -1.164062 1.78125 -1.375 C 1.90625 -1.59375 1.96875 -1.914062 1.96875 -2.34375 L 1.96875 -10.15625 L 0.484375 -10.15625 L 0.484375 -11.140625 L 1.96875 -11.140625 L 1.96875 -12.203125 C 1.96875 -13.441406 2.234375 -14.382812 2.765625 -15.03125 C 3.304688 -15.6875 4.085938 -16.015625 5.109375 -16.015625 C 5.671875 -16.015625 6.109375 -15.953125 6.421875 -15.828125 C 6.742188 -15.703125 6.976562 -15.53125 7.125 -15.3125 C 7.269531 -15.101562 7.34375 -14.859375 7.34375 -14.578125 C 7.34375 -14.359375 7.289062 -14.15625 7.1875 -13.96875 C 7.09375 -13.789062 6.941406 -13.648438 6.734375 -13.546875 C 6.523438 -13.441406 6.265625 -13.390625 5.953125 -13.390625 C 5.953125 -13.679688 5.921875 -13.953125 5.859375 -14.203125 C 5.804688 -14.460938 5.707031 -14.675781 5.5625 -14.84375 C 5.425781 -15.007812 5.226562 -15.09375 4.96875 -15.09375 C 4.539062 -15.09375 4.234375 -14.859375 4.046875 -14.390625 C 3.859375 -13.921875 3.765625 -13.253906 3.765625 -12.390625 L 3.765625 -11.140625 L 6.078125 -11.140625 L 6.078125 -10.15625 L 3.765625 -10.15625 L 3.765625 -2.34375 C 3.765625 -1.914062 3.820312 -1.59375 3.9375 -1.375 C 4.0625 -1.164062 4.222656 -1.023438 4.421875 -0.953125 C 4.617188 -0.890625 4.835938 -0.859375 5.078125 -0.859375 L 5.71875 -0.859375 L 5.71875 0 Z M 0.421875 0 "/>
            </g>
        </g>
    </g>
    <g fill="#000000" fill-opacity="1">
        <g transform="translate(102.557134, 236.87414)">
            <g/>
        </g>
    </g>
    <g fill="#000000" fill-opacity="1">
        <g transform="translate(107.172307, 236.87414)">
            <g>
                <path d="M 2.640625 0 L 2.640625 -0.859375 L 2.953125 -0.859375 C 3.210938 -0.859375 3.445312 -0.890625 3.65625 -0.953125 C 3.863281 -1.023438 4.03125 -1.164062 4.15625 -1.375 C 4.28125 -1.59375 4.34375 -1.90625 4.34375 -2.3125 L 4.34375 -6.34375 L 1.328125 -12.890625 C 1.203125 -13.171875 1.085938 -13.390625 0.984375 -13.546875 C 0.878906 -13.703125 0.757812 -13.816406 0.625 -13.890625 C 0.5 -13.960938 0.335938 -14 0.140625 -14 L -0.0625 -14 L -0.0625 -14.84375 L 4.609375 -14.84375 L 4.609375 -14 L 4.1875 -14 C 3.875 -14 3.660156 -13.9375 3.546875 -13.8125 C 3.441406 -13.6875 3.390625 -13.539062 3.390625 -13.375 C 3.390625 -13.21875 3.421875 -13.03125 3.484375 -12.8125 C 3.546875 -12.601562 3.613281 -12.421875 3.6875 -12.265625 L 4.90625 -9.546875 C 5.101562 -9.128906 5.269531 -8.734375 5.40625 -8.359375 C 5.539062 -7.992188 5.660156 -7.65625 5.765625 -7.34375 C 5.867188 -7.613281 6 -7.9375 6.15625 -8.3125 C 6.3125 -8.6875 6.476562 -9.09375 6.65625 -9.53125 L 7.6875 -11.859375 C 7.800781 -12.117188 7.890625 -12.363281 7.953125 -12.59375 C 8.023438 -12.832031 8.0625 -13.035156 8.0625 -13.203125 C 8.0625 -13.503906 7.960938 -13.710938 7.765625 -13.828125 C 7.566406 -13.941406 7.304688 -14 6.984375 -14 L 6.640625 -14 L 6.640625 -14.84375 L 10.625 -14.84375 L 10.625 -14 L 10.453125 -14 C 10.296875 -14 10.144531 -13.945312 10 -13.84375 C 9.863281 -13.75 9.722656 -13.585938 9.578125 -13.359375 C 9.429688 -13.128906 9.257812 -12.804688 9.0625 -12.390625 L 6.28125 -6.34375 L 6.28125 -2.40625 C 6.28125 -1.96875 6.34375 -1.632812 6.46875 -1.40625 C 6.59375 -1.1875 6.757812 -1.039062 6.96875 -0.96875 C 7.175781 -0.894531 7.394531 -0.859375 7.625 -0.859375 L 8 -0.859375 L 8 0 Z M 2.640625 0 "/>
            </g>
        </g>
    </g>
    <g fill="#000000" fill-opacity="1">
        <g transform="translate(117.733166, 236.87414)">
            <g>
                <path d="M 4.796875 0.203125 C 3.578125 0.203125 2.617188 -0.269531 1.921875 -1.21875 C 1.222656 -2.175781 0.875 -3.632812 0.875 -5.59375 C 0.875 -7.53125 1.207031 -8.972656 1.875 -9.921875 C 2.550781 -10.878906 3.546875 -11.359375 4.859375 -11.359375 C 6.066406 -11.359375 7.019531 -10.878906 7.71875 -9.921875 C 8.425781 -8.972656 8.78125 -7.53125 8.78125 -5.59375 C 8.78125 -3.632812 8.441406 -2.175781 7.765625 -1.21875 C 7.097656 -0.269531 6.109375 0.203125 4.796875 0.203125 Z M 4.84375 -0.859375 C 5.351562 -0.859375 5.757812 -1.035156 6.0625 -1.390625 C 6.375 -1.753906 6.59375 -2.285156 6.71875 -2.984375 C 6.851562 -3.679688 6.921875 -4.550781 6.921875 -5.59375 C 6.921875 -7.15625 6.765625 -8.328125 6.453125 -9.109375 C 6.140625 -9.890625 5.601562 -10.28125 4.84375 -10.28125 C 4.070312 -10.28125 3.523438 -9.890625 3.203125 -9.109375 C 2.878906 -8.328125 2.71875 -7.15625 2.71875 -5.59375 C 2.71875 -4.039062 2.878906 -2.863281 3.203125 -2.0625 C 3.535156 -1.257812 4.082031 -0.859375 4.84375 -0.859375 Z M 4.84375 -0.859375 "/>
            </g>
        </g>
    </g>
    <g fill="#000000" fill-opacity="1">
        <g transform="translate(127.379299, 236.87414)">
            <g>
                <path d="M 4.46875 0.203125 C 3.539062 0.203125 2.84375 -0.113281 2.375 -0.75 C 1.914062 -1.394531 1.6875 -2.4375 1.6875 -3.875 L 1.6875 -8.90625 C 1.6875 -9.300781 1.632812 -9.597656 1.53125 -9.796875 C 1.425781 -10.003906 1.28125 -10.140625 1.09375 -10.203125 C 0.90625 -10.265625 0.6875 -10.296875 0.4375 -10.296875 L 0.359375 -10.296875 L 0.359375 -11.140625 L 3.5 -11.140625 L 3.5 -3.90625 C 3.5 -3.28125 3.539062 -2.753906 3.625 -2.328125 C 3.71875 -1.910156 3.878906 -1.59375 4.109375 -1.375 C 4.347656 -1.164062 4.675781 -1.0625 5.09375 -1.0625 C 5.550781 -1.0625 5.914062 -1.203125 6.1875 -1.484375 C 6.46875 -1.765625 6.675781 -2.160156 6.8125 -2.671875 C 6.945312 -3.191406 7.015625 -3.789062 7.015625 -4.46875 L 7.015625 -8.78125 C 7.015625 -9.21875 6.960938 -9.546875 6.859375 -9.765625 C 6.753906 -9.984375 6.609375 -10.125 6.421875 -10.1875 C 6.234375 -10.257812 6.019531 -10.296875 5.78125 -10.296875 L 5.71875 -10.296875 L 5.71875 -11.140625 L 8.8125 -11.140625 L 8.8125 -2.265625 C 8.8125 -1.859375 8.867188 -1.550781 8.984375 -1.34375 C 9.109375 -1.144531 9.265625 -1.015625 9.453125 -0.953125 C 9.648438 -0.890625 9.867188 -0.859375 10.109375 -0.859375 L 10.1875 -0.859375 L 10.1875 0 L 7.390625 0 L 7.140625 -1.703125 L 7.046875 -1.703125 C 6.742188 -0.972656 6.378906 -0.472656 5.953125 -0.203125 C 5.535156 0.0664062 5.039062 0.203125 4.46875 0.203125 Z M 4.46875 0.203125 "/>
            </g>
        </g>
    </g>
    <g fill="#000000" fill-opacity="1">
        <g transform="translate(137.981734, 236.87414)">
            <g>
                <path d="M 0.484375 0 L 0.484375 -0.859375 L 0.546875 -0.859375 C 0.796875 -0.859375 1.015625 -0.890625 1.203125 -0.953125 C 1.398438 -1.023438 1.554688 -1.164062 1.671875 -1.375 C 1.785156 -1.59375 1.84375 -1.914062 1.84375 -2.34375 L 1.84375 -8.875 C 1.84375 -9.289062 1.785156 -9.597656 1.671875 -9.796875 C 1.566406 -10.003906 1.414062 -10.140625 1.21875 -10.203125 C 1.03125 -10.265625 0.8125 -10.296875 0.5625 -10.296875 L 0.5 -10.296875 L 0.5 -11.140625 L 3.28125 -11.140625 L 3.5625 -8.90625 L 3.625 -8.90625 C 3.769531 -9.34375 3.945312 -9.75 4.15625 -10.125 C 4.363281 -10.5 4.625 -10.796875 4.9375 -11.015625 C 5.25 -11.242188 5.628906 -11.359375 6.078125 -11.359375 C 6.628906 -11.359375 7.039062 -11.210938 7.3125 -10.921875 C 7.582031 -10.640625 7.71875 -10.265625 7.71875 -9.796875 C 7.71875 -9.378906 7.582031 -9.046875 7.3125 -8.796875 C 7.050781 -8.546875 6.640625 -8.421875 6.078125 -8.421875 C 6.078125 -8.804688 6.046875 -9.117188 5.984375 -9.359375 C 5.929688 -9.597656 5.84375 -9.769531 5.71875 -9.875 C 5.601562 -9.988281 5.4375 -10.046875 5.21875 -10.046875 C 4.96875 -10.046875 4.742188 -9.910156 4.546875 -9.640625 C 4.359375 -9.378906 4.195312 -9.035156 4.0625 -8.609375 C 3.9375 -8.191406 3.84375 -7.726562 3.78125 -7.21875 C 3.71875 -6.71875 3.6875 -6.222656 3.6875 -5.734375 L 3.6875 -2.25 C 3.6875 -1.84375 3.738281 -1.539062 3.84375 -1.34375 C 3.957031 -1.144531 4.109375 -1.015625 4.296875 -0.953125 C 4.492188 -0.890625 4.710938 -0.859375 4.953125 -0.859375 L 5.34375 -0.859375 L 5.34375 0 Z M 0.484375 0 "/>
            </g>
        </g>
    </g>
    <g fill="#000000" fill-opacity="1">
        <g transform="translate(145.943949, 236.87414)">
            <g/>
        </g>
    </g>
    <g fill="#000000" fill-opacity="1">
        <g transform="translate(150.559122, 236.87414)">
            <g>
                <path d="M 6.203125 0.203125 C 5.023438 0.203125 4.039062 -0.113281 3.25 -0.75 C 2.46875 -1.382812 1.882812 -2.273438 1.5 -3.421875 C 1.113281 -4.578125 0.921875 -5.925781 0.921875 -7.46875 C 0.921875 -9.007812 1.113281 -10.347656 1.5 -11.484375 C 1.882812 -12.617188 2.46875 -13.5 3.25 -14.125 C 4.039062 -14.757812 5.03125 -15.078125 6.21875 -15.078125 C 7.34375 -15.078125 8.296875 -14.757812 9.078125 -14.125 C 9.859375 -13.5 10.453125 -12.613281 10.859375 -11.46875 C 11.273438 -10.320312 11.484375 -8.976562 11.484375 -7.4375 C 11.484375 -5.90625 11.273438 -4.566406 10.859375 -3.421875 C 10.453125 -2.273438 9.859375 -1.382812 9.078125 -0.75 C 8.296875 -0.113281 7.335938 0.203125 6.203125 0.203125 Z M 6.203125 -0.890625 C 6.992188 -0.890625 7.625 -1.148438 8.09375 -1.671875 C 8.5625 -2.191406 8.894531 -2.941406 9.09375 -3.921875 C 9.300781 -4.898438 9.40625 -6.070312 9.40625 -7.4375 C 9.40625 -8.832031 9.300781 -10.015625 9.09375 -10.984375 C 8.894531 -11.953125 8.5625 -12.691406 8.09375 -13.203125 C 7.632812 -13.710938 7.007812 -13.96875 6.21875 -13.96875 C 5.082031 -13.96875 4.257812 -13.394531 3.75 -12.25 C 3.25 -11.113281 3 -9.507812 3 -7.4375 C 3 -6.070312 3.109375 -4.898438 3.328125 -3.921875 C 3.546875 -2.941406 3.890625 -2.191406 4.359375 -1.671875 C 4.835938 -1.148438 5.453125 -0.890625 6.203125 -0.890625 Z M 6.203125 -0.890625 "/>
            </g>
        </g>
    </g>
    <g fill="#000000" fill-opacity="1">
        <g transform="translate(162.970205, 236.87414)">
            <g>
                <path d="M 4.71875 0.203125 C 3.96875 0.203125 3.300781 0.0078125 2.71875 -0.375 C 2.132812 -0.757812 1.679688 -1.375 1.359375 -2.21875 C 1.035156 -3.070312 0.875 -4.171875 0.875 -5.515625 C 0.875 -6.992188 1.039062 -8.160156 1.375 -9.015625 C 1.707031 -9.867188 2.15625 -10.472656 2.71875 -10.828125 C 3.289062 -11.179688 3.929688 -11.359375 4.640625 -11.359375 C 5.265625 -11.359375 5.796875 -11.273438 6.234375 -11.109375 C 6.679688 -10.941406 7.019531 -10.703125 7.25 -10.390625 C 7.488281 -10.078125 7.609375 -9.691406 7.609375 -9.234375 C 7.609375 -8.910156 7.550781 -8.660156 7.4375 -8.484375 C 7.332031 -8.304688 7.15625 -8.175781 6.90625 -8.09375 C 6.664062 -8.019531 6.351562 -7.984375 5.96875 -7.984375 C 5.96875 -8.410156 5.925781 -8.800781 5.84375 -9.15625 C 5.769531 -9.507812 5.640625 -9.796875 5.453125 -10.015625 C 5.265625 -10.234375 5 -10.34375 4.65625 -10.34375 C 4.269531 -10.34375 3.925781 -10.195312 3.625 -9.90625 C 3.332031 -9.625 3.101562 -9.132812 2.9375 -8.4375 C 2.78125 -7.75 2.703125 -6.78125 2.703125 -5.53125 C 2.703125 -4.550781 2.78125 -3.71875 2.9375 -3.03125 C 3.101562 -2.34375 3.351562 -1.820312 3.6875 -1.46875 C 4.03125 -1.113281 4.457031 -0.9375 4.96875 -0.9375 C 5.375 -0.9375 5.722656 -1.015625 6.015625 -1.171875 C 6.316406 -1.335938 6.570312 -1.550781 6.78125 -1.8125 C 6.988281 -2.070312 7.15625 -2.347656 7.28125 -2.640625 C 7.382812 -2.554688 7.460938 -2.453125 7.515625 -2.328125 C 7.578125 -2.203125 7.609375 -2.039062 7.609375 -1.84375 C 7.609375 -1.5625 7.515625 -1.257812 7.328125 -0.9375 C 7.140625 -0.613281 6.832031 -0.34375 6.40625 -0.125 C 5.988281 0.09375 5.425781 0.203125 4.71875 0.203125 Z M 4.71875 0.203125 "/>
            </g>
        </g>
    </g>
    <g fill="#000000" fill-opacity="1">
        <g transform="translate(171.223477, 236.87414)">
            <g>
                <path d="M 4.71875 0.203125 C 3.96875 0.203125 3.300781 0.0078125 2.71875 -0.375 C 2.132812 -0.757812 1.679688 -1.375 1.359375 -2.21875 C 1.035156 -3.070312 0.875 -4.171875 0.875 -5.515625 C 0.875 -6.992188 1.039062 -8.160156 1.375 -9.015625 C 1.707031 -9.867188 2.15625 -10.472656 2.71875 -10.828125 C 3.289062 -11.179688 3.929688 -11.359375 4.640625 -11.359375 C 5.265625 -11.359375 5.796875 -11.273438 6.234375 -11.109375 C 6.679688 -10.941406 7.019531 -10.703125 7.25 -10.390625 C 7.488281 -10.078125 7.609375 -9.691406 7.609375 -9.234375 C 7.609375 -8.910156 7.550781 -8.660156 7.4375 -8.484375 C 7.332031 -8.304688 7.15625 -8.175781 6.90625 -8.09375 C 6.664062 -8.019531 6.351562 -7.984375 5.96875 -7.984375 C 5.96875 -8.410156 5.925781 -8.800781 5.84375 -9.15625 C 5.769531 -9.507812 5.640625 -9.796875 5.453125 -10.015625 C 5.265625 -10.234375 5 -10.34375 4.65625 -10.34375 C 4.269531 -10.34375 3.925781 -10.195312 3.625 -9.90625 C 3.332031 -9.625 3.101562 -9.132812 2.9375 -8.4375 C 2.78125 -7.75 2.703125 -6.78125 2.703125 -5.53125 C 2.703125 -4.550781 2.78125 -3.71875 2.9375 -3.03125 C 3.101562 -2.34375 3.351562 -1.820312 3.6875 -1.46875 C 4.03125 -1.113281 4.457031 -0.9375 4.96875 -0.9375 C 5.375 -0.9375 5.722656 -1.015625 6.015625 -1.171875 C 6.316406 -1.335938 6.570312 -1.550781 6.78125 -1.8125 C 6.988281 -2.070312 7.15625 -2.347656 7.28125 -2.640625 C 7.382812 -2.554688 7.460938 -2.453125 7.515625 -2.328125 C 7.578125 -2.203125 7.609375 -2.039062 7.609375 -1.84375 C 7.609375 -1.5625 7.515625 -1.257812 7.328125 -0.9375 C 7.140625 -0.613281 6.832031 -0.34375 6.40625 -0.125 C 5.988281 0.09375 5.425781 0.203125 4.71875 0.203125 Z M 4.71875 0.203125 "/>
            </g>
        </g>
    </g>
    <g fill="#000000" fill-opacity="1">
        <g transform="translate(179.47675, 236.87414)">
            <g>
                <path d="M 4.46875 0.203125 C 3.539062 0.203125 2.84375 -0.113281 2.375 -0.75 C 1.914062 -1.394531 1.6875 -2.4375 1.6875 -3.875 L 1.6875 -8.90625 C 1.6875 -9.300781 1.632812 -9.597656 1.53125 -9.796875 C 1.425781 -10.003906 1.28125 -10.140625 1.09375 -10.203125 C 0.90625 -10.265625 0.6875 -10.296875 0.4375 -10.296875 L 0.359375 -10.296875 L 0.359375 -11.140625 L 3.5 -11.140625 L 3.5 -3.90625 C 3.5 -3.28125 3.539062 -2.753906 3.625 -2.328125 C 3.71875 -1.910156 3.878906 -1.59375 4.109375 -1.375 C 4.347656 -1.164062 4.675781 -1.0625 5.09375 -1.0625 C 5.550781 -1.0625 5.914062 -1.203125 6.1875 -1.484375 C 6.46875 -1.765625 6.675781 -2.160156 6.8125 -2.671875 C 6.945312 -3.191406 7.015625 -3.789062 7.015625 -4.46875 L 7.015625 -8.78125 C 7.015625 -9.21875 6.960938 -9.546875 6.859375 -9.765625 C 6.753906 -9.984375 6.609375 -10.125 6.421875 -10.1875 C 6.234375 -10.257812 6.019531 -10.296875 5.78125 -10.296875 L 5.71875 -10.296875 L 5.71875 -11.140625 L 8.8125 -11.140625 L 8.8125 -2.265625 C 8.8125 -1.859375 8.867188 -1.550781 8.984375 -1.34375 C 9.109375 -1.144531 9.265625 -1.015625 9.453125 -0.953125 C 9.648438 -0.890625 9.867188 -0.859375 10.109375 -0.859375 L 10.1875 -0.859375 L 10.1875 0 L 7.390625 0 L 7.140625 -1.703125 L 7.046875 -1.703125 C 6.742188 -0.972656 6.378906 -0.472656 5.953125 -0.203125 C 5.535156 0.0664062 5.039062 0.203125 4.46875 0.203125 Z M 4.46875 0.203125 "/>
            </g>
        </g>
    </g>
    <g fill="#000000" fill-opacity="1">
        <g transform="translate(190.079185, 236.87414)">
            <g>
                <path d="M 0.296875 4.90625 L 0.296875 4.0625 L 0.421875 4.0625 C 0.640625 4.0625 0.84375 4.023438 1.03125 3.953125 C 1.226562 3.878906 1.390625 3.734375 1.515625 3.515625 C 1.640625 3.304688 1.703125 2.988281 1.703125 2.5625 L 1.703125 -8.875 C 1.703125 -9.289062 1.644531 -9.597656 1.53125 -9.796875 C 1.425781 -10.003906 1.28125 -10.140625 1.09375 -10.203125 C 0.90625 -10.265625 0.691406 -10.296875 0.453125 -10.296875 L 0.25 -10.296875 L 0.25 -11.140625 L 3.21875 -11.140625 L 3.4375 -9.375 L 3.5 -9.375 C 3.726562 -9.957031 4.039062 -10.429688 4.4375 -10.796875 C 4.84375 -11.171875 5.367188 -11.359375 6.015625 -11.359375 C 7.085938 -11.359375 7.910156 -10.894531 8.484375 -9.96875 C 9.066406 -9.050781 9.359375 -7.59375 9.359375 -5.59375 C 9.359375 -3.582031 9.066406 -2.109375 8.484375 -1.171875 C 7.910156 -0.234375 7.070312 0.234375 5.96875 0.234375 C 5.375 0.234375 4.878906 0.0625 4.484375 -0.28125 C 4.097656 -0.632812 3.789062 -1.101562 3.5625 -1.6875 L 3.5 -1.6875 C 3.507812 -1.382812 3.515625 -1.035156 3.515625 -0.640625 C 3.523438 -0.242188 3.53125 0.195312 3.53125 0.6875 L 3.53125 2.65625 C 3.53125 3.0625 3.59375 3.363281 3.71875 3.5625 C 3.84375 3.769531 4 3.90625 4.1875 3.96875 C 4.382812 4.03125 4.585938 4.0625 4.796875 4.0625 L 5.15625 4.0625 L 5.15625 4.90625 Z M 5.609375 -0.921875 C 6.304688 -0.921875 6.796875 -1.332031 7.078125 -2.15625 C 7.359375 -2.988281 7.5 -4.160156 7.5 -5.671875 C 7.5 -7.160156 7.359375 -8.289062 7.078125 -9.0625 C 6.796875 -9.84375 6.304688 -10.234375 5.609375 -10.234375 C 5.066406 -10.234375 4.644531 -10.046875 4.34375 -9.671875 C 4.050781 -9.304688 3.84375 -8.785156 3.71875 -8.109375 C 3.59375 -7.429688 3.53125 -6.613281 3.53125 -5.65625 C 3.53125 -4.65625 3.59375 -3.800781 3.71875 -3.09375 C 3.84375 -2.382812 4.050781 -1.84375 4.34375 -1.46875 C 4.644531 -1.101562 5.066406 -0.921875 5.609375 -0.921875 Z M 5.609375 -0.921875 "/>
            </g>
        </g>
    </g>
    <g fill="#000000" fill-opacity="1">
        <g transform="translate(200.328204, 236.87414)">
            <g>
                <path d="M 3.3125 0.203125 C 2.832031 0.203125 2.40625 0.0820312 2.03125 -0.15625 C 1.664062 -0.394531 1.367188 -0.757812 1.140625 -1.25 C 0.910156 -1.75 0.796875 -2.375 0.796875 -3.125 C 0.796875 -4.226562 1.101562 -5.039062 1.71875 -5.5625 C 2.332031 -6.082031 3.269531 -6.367188 4.53125 -6.421875 L 5.890625 -6.484375 L 5.890625 -7.75 C 5.890625 -8.28125 5.851562 -8.734375 5.78125 -9.109375 C 5.707031 -9.492188 5.566406 -9.796875 5.359375 -10.015625 C 5.148438 -10.234375 4.84375 -10.34375 4.4375 -10.34375 C 4.039062 -10.34375 3.742188 -10.25 3.546875 -10.0625 C 3.347656 -9.875 3.207031 -9.609375 3.125 -9.265625 C 3.050781 -8.921875 3.015625 -8.519531 3.015625 -8.0625 C 2.503906 -8.0625 2.117188 -8.171875 1.859375 -8.390625 C 1.609375 -8.609375 1.484375 -8.929688 1.484375 -9.359375 C 1.484375 -9.773438 1.609375 -10.128906 1.859375 -10.421875 C 2.117188 -10.722656 2.476562 -10.953125 2.9375 -11.109375 C 3.40625 -11.273438 3.953125 -11.359375 4.578125 -11.359375 C 5.597656 -11.359375 6.367188 -11.082031 6.890625 -10.53125 C 7.421875 -9.988281 7.6875 -9.054688 7.6875 -7.734375 L 7.6875 -2.34375 C 7.6875 -1.957031 7.722656 -1.65625 7.796875 -1.4375 C 7.867188 -1.226562 7.976562 -1.078125 8.125 -0.984375 C 8.269531 -0.898438 8.46875 -0.859375 8.71875 -0.859375 L 8.78125 -0.859375 L 8.78125 0 L 6.296875 0 L 6.046875 -1.828125 L 5.921875 -1.828125 C 5.691406 -1.441406 5.460938 -1.09375 5.234375 -0.78125 C 5.015625 -0.46875 4.753906 -0.222656 4.453125 -0.046875 C 4.160156 0.117188 3.78125 0.203125 3.3125 0.203125 Z M 3.890625 -0.875 C 4.304688 -0.875 4.660156 -1.007812 4.953125 -1.28125 C 5.253906 -1.550781 5.488281 -1.921875 5.65625 -2.390625 C 5.820312 -2.859375 5.90625 -3.382812 5.90625 -3.96875 L 5.90625 -5.671875 L 4.953125 -5.609375 C 4.378906 -5.585938 3.921875 -5.472656 3.578125 -5.265625 C 3.242188 -5.054688 3.003906 -4.765625 2.859375 -4.390625 C 2.722656 -4.015625 2.65625 -3.550781 2.65625 -3 C 2.65625 -2.5625 2.695312 -2.179688 2.78125 -1.859375 C 2.863281 -1.546875 3 -1.300781 3.1875 -1.125 C 3.375 -0.957031 3.609375 -0.875 3.890625 -0.875 Z M 3.890625 -0.875 "/>
            </g>
        </g>
    </g>
    <g fill="#000000" fill-opacity="1">
        <g transform="translate(209.766443, 236.87414)">
            <g>
                <path d="M 3.890625 0.203125 C 3.109375 0.203125 2.523438 -0.0351562 2.140625 -0.515625 C 1.765625 -0.992188 1.578125 -1.828125 1.578125 -3.015625 L 1.578125 -10.1875 L 0.3125 -10.1875 L 0.3125 -10.828125 C 0.632812 -10.898438 0.90625 -11 1.125 -11.125 C 1.34375 -11.25 1.535156 -11.421875 1.703125 -11.640625 C 1.867188 -11.847656 2.003906 -12.097656 2.109375 -12.390625 C 2.222656 -12.679688 2.320312 -13.117188 2.40625 -13.703125 L 3.375 -13.703125 L 3.375 -11.140625 L 5.515625 -11.140625 L 5.515625 -10.1875 L 3.375 -10.1875 L 3.375 -3 C 3.375 -2.25 3.460938 -1.707031 3.640625 -1.375 C 3.816406 -1.050781 4.109375 -0.890625 4.515625 -0.890625 C 4.742188 -0.890625 4.945312 -0.90625 5.125 -0.9375 C 5.3125 -0.96875 5.492188 -1.007812 5.671875 -1.0625 L 5.671875 -0.109375 C 5.492188 -0.0351562 5.25 0.03125 4.9375 0.09375 C 4.632812 0.164062 4.285156 0.203125 3.890625 0.203125 Z M 3.890625 0.203125 "/>
            </g>
        </g>
    </g>
    <g fill="#000000" fill-opacity="1">
        <g transform="translate(215.816065, 236.87414)">
            <g>
                <path d="M 0.359375 0 L 0.359375 -0.859375 L 0.5625 -0.859375 C 0.820312 -0.859375 1.046875 -0.890625 1.234375 -0.953125 C 1.429688 -1.023438 1.585938 -1.164062 1.703125 -1.375 C 1.816406 -1.582031 1.875 -1.882812 1.875 -2.28125 L 1.875 -8.84375 C 1.875 -9.257812 1.820312 -9.570312 1.71875 -9.78125 C 1.625 -9.988281 1.488281 -10.125 1.3125 -10.1875 C 1.144531 -10.257812 0.929688 -10.296875 0.671875 -10.296875 L 0.453125 -10.296875 L 0.453125 -11.140625 L 3.65625 -11.140625 L 3.65625 -2.390625 C 3.65625 -1.960938 3.707031 -1.632812 3.8125 -1.40625 C 3.914062 -1.1875 4.066406 -1.039062 4.265625 -0.96875 C 4.472656 -0.894531 4.707031 -0.859375 4.96875 -0.859375 L 5.171875 -0.859375 L 5.171875 0 Z M 2.6875 -13.328125 C 2.375 -13.328125 2.117188 -13.414062 1.921875 -13.59375 C 1.734375 -13.78125 1.640625 -14.085938 1.640625 -14.515625 C 1.640625 -14.960938 1.734375 -15.269531 1.921875 -15.4375 C 2.117188 -15.613281 2.375 -15.703125 2.6875 -15.703125 C 2.988281 -15.703125 3.242188 -15.613281 3.453125 -15.4375 C 3.660156 -15.269531 3.765625 -14.960938 3.765625 -14.515625 C 3.765625 -14.085938 3.660156 -13.78125 3.453125 -13.59375 C 3.242188 -13.414062 2.988281 -13.328125 2.6875 -13.328125 Z M 2.6875 -13.328125 "/>
            </g>
        </g>
    </g>
    <g fill="#000000" fill-opacity="1">
        <g transform="translate(221.221223, 236.87414)">
            <g>
                <path d="M 4.796875 0.203125 C 3.578125 0.203125 2.617188 -0.269531 1.921875 -1.21875 C 1.222656 -2.175781 0.875 -3.632812 0.875 -5.59375 C 0.875 -7.53125 1.207031 -8.972656 1.875 -9.921875 C 2.550781 -10.878906 3.546875 -11.359375 4.859375 -11.359375 C 6.066406 -11.359375 7.019531 -10.878906 7.71875 -9.921875 C 8.425781 -8.972656 8.78125 -7.53125 8.78125 -5.59375 C 8.78125 -3.632812 8.441406 -2.175781 7.765625 -1.21875 C 7.097656 -0.269531 6.109375 0.203125 4.796875 0.203125 Z M 4.84375 -0.859375 C 5.351562 -0.859375 5.757812 -1.035156 6.0625 -1.390625 C 6.375 -1.753906 6.59375 -2.285156 6.71875 -2.984375 C 6.851562 -3.679688 6.921875 -4.550781 6.921875 -5.59375 C 6.921875 -7.15625 6.765625 -8.328125 6.453125 -9.109375 C 6.140625 -9.890625 5.601562 -10.28125 4.84375 -10.28125 C 4.070312 -10.28125 3.523438 -9.890625 3.203125 -9.109375 C 2.878906 -8.328125 2.71875 -7.15625 2.71875 -5.59375 C 2.71875 -4.039062 2.878906 -2.863281 3.203125 -2.0625 C 3.535156 -1.257812 4.082031 -0.859375 4.84375 -0.859375 Z M 4.84375 -0.859375 "/>
            </g>
        </g>
    </g>
    <g fill="#000000" fill-opacity="1">
        <g transform="translate(230.867356, 236.87414)">
            <g>
                <path d="M 0.421875 0 L 0.421875 -0.859375 L 0.5625 -0.859375 C 0.8125 -0.859375 1.03125 -0.890625 1.21875 -0.953125 C 1.414062 -1.023438 1.570312 -1.164062 1.6875 -1.375 C 1.8125 -1.59375 1.875 -1.914062 1.875 -2.34375 L 1.875 -8.875 C 1.875 -9.289062 1.816406 -9.597656 1.703125 -9.796875 C 1.585938 -10.003906 1.429688 -10.140625 1.234375 -10.203125 C 1.046875 -10.265625 0.835938 -10.296875 0.609375 -10.296875 L 0.5 -10.296875 L 0.5 -11.140625 L 3.390625 -11.140625 L 3.59375 -9.4375 L 3.6875 -9.4375 C 3.957031 -10.144531 4.300781 -10.640625 4.71875 -10.921875 C 5.132812 -11.210938 5.640625 -11.359375 6.234375 -11.359375 C 7.109375 -11.359375 7.78125 -11.03125 8.25 -10.375 C 8.726562 -9.726562 8.96875 -8.691406 8.96875 -7.265625 L 8.96875 -2.34375 C 8.96875 -1.914062 9.015625 -1.59375 9.109375 -1.375 C 9.203125 -1.164062 9.34375 -1.023438 9.53125 -0.953125 C 9.71875 -0.890625 9.929688 -0.859375 10.171875 -0.859375 L 10.25 -0.859375 L 10.25 0 L 7.171875 0 L 7.171875 -7.21875 C 7.171875 -8.101562 7.050781 -8.800781 6.8125 -9.3125 C 6.582031 -9.832031 6.175781 -10.09375 5.59375 -10.09375 C 5.101562 -10.09375 4.71875 -9.925781 4.4375 -9.59375 C 4.15625 -9.269531 3.953125 -8.847656 3.828125 -8.328125 C 3.710938 -7.804688 3.65625 -7.253906 3.65625 -6.671875 L 3.65625 -2.25 C 3.65625 -1.832031 3.707031 -1.523438 3.8125 -1.328125 C 3.914062 -1.140625 4.0625 -1.015625 4.25 -0.953125 C 4.445312 -0.890625 4.664062 -0.859375 4.90625 -0.859375 L 5.015625 -0.859375 L 5.015625 0 Z M 0.421875 0 "/>
            </g>
        </g>
    </g>
    <g fill="#000000" fill-opacity="1">
        <g transform="translate(241.573738, 236.87414)">
            <g>
                <path d="M 3.3125 0.203125 C 2.832031 0.203125 2.40625 0.0820312 2.03125 -0.15625 C 1.664062 -0.394531 1.367188 -0.757812 1.140625 -1.25 C 0.910156 -1.75 0.796875 -2.375 0.796875 -3.125 C 0.796875 -4.226562 1.101562 -5.039062 1.71875 -5.5625 C 2.332031 -6.082031 3.269531 -6.367188 4.53125 -6.421875 L 5.890625 -6.484375 L 5.890625 -7.75 C 5.890625 -8.28125 5.851562 -8.734375 5.78125 -9.109375 C 5.707031 -9.492188 5.566406 -9.796875 5.359375 -10.015625 C 5.148438 -10.234375 4.84375 -10.34375 4.4375 -10.34375 C 4.039062 -10.34375 3.742188 -10.25 3.546875 -10.0625 C 3.347656 -9.875 3.207031 -9.609375 3.125 -9.265625 C 3.050781 -8.921875 3.015625 -8.519531 3.015625 -8.0625 C 2.503906 -8.0625 2.117188 -8.171875 1.859375 -8.390625 C 1.609375 -8.609375 1.484375 -8.929688 1.484375 -9.359375 C 1.484375 -9.773438 1.609375 -10.128906 1.859375 -10.421875 C 2.117188 -10.722656 2.476562 -10.953125 2.9375 -11.109375 C 3.40625 -11.273438 3.953125 -11.359375 4.578125 -11.359375 C 5.597656 -11.359375 6.367188 -11.082031 6.890625 -10.53125 C 7.421875 -9.988281 7.6875 -9.054688 7.6875 -7.734375 L 7.6875 -2.34375 C 7.6875 -1.957031 7.722656 -1.65625 7.796875 -1.4375 C 7.867188 -1.226562 7.976562 -1.078125 8.125 -0.984375 C 8.269531 -0.898438 8.46875 -0.859375 8.71875 -0.859375 L 8.78125 -0.859375 L 8.78125 0 L 6.296875 0 L 6.046875 -1.828125 L 5.921875 -1.828125 C 5.691406 -1.441406 5.460938 -1.09375 5.234375 -0.78125 C 5.015625 -0.46875 4.753906 -0.222656 4.453125 -0.046875 C 4.160156 0.117188 3.78125 0.203125 3.3125 0.203125 Z M 3.890625 -0.875 C 4.304688 -0.875 4.660156 -1.007812 4.953125 -1.28125 C 5.253906 -1.550781 5.488281 -1.921875 5.65625 -2.390625 C 5.820312 -2.859375 5.90625 -3.382812 5.90625 -3.96875 L 5.90625 -5.671875 L 4.953125 -5.609375 C 4.378906 -5.585938 3.921875 -5.472656 3.578125 -5.265625 C 3.242188 -5.054688 3.003906 -4.765625 2.859375 -4.390625 C 2.722656 -4.015625 2.65625 -3.550781 2.65625 -3 C 2.65625 -2.5625 2.695312 -2.179688 2.78125 -1.859375 C 2.863281 -1.546875 3 -1.300781 3.1875 -1.125 C 3.375 -0.957031 3.609375 -0.875 3.890625 -0.875 Z M 3.890625 -0.875 "/>
            </g>
        </g>
    </g>
    <g fill="#000000" fill-opacity="1">
        <g transform="translate(251.011978, 236.87414)">
            <g>
                <path d="M 0.234375 0 L 0.234375 -0.859375 L 0.4375 -0.859375 C 0.695312 -0.859375 0.925781 -0.894531 1.125 -0.96875 C 1.320312 -1.039062 1.46875 -1.1875 1.5625 -1.40625 C 1.664062 -1.632812 1.71875 -1.960938 1.71875 -2.390625 L 1.71875 -13.53125 C 1.71875 -13.945312 1.65625 -14.253906 1.53125 -14.453125 C 1.414062 -14.660156 1.257812 -14.796875 1.0625 -14.859375 C 0.863281 -14.921875 0.65625 -14.953125 0.4375 -14.953125 L 0.234375 -14.953125 L 0.234375 -15.8125 L 3.53125 -15.8125 L 3.53125 -2.390625 C 3.53125 -1.960938 3.582031 -1.632812 3.6875 -1.40625 C 3.789062 -1.1875 3.941406 -1.039062 4.140625 -0.96875 C 4.347656 -0.894531 4.582031 -0.859375 4.84375 -0.859375 L 5.03125 -0.859375 L 5.03125 0 Z M 0.234375 0 "/>
            </g>
        </g>
    </g>
    <g fill="#000000" fill-opacity="1">
        <g transform="translate(256.271613, 236.87414)">
            <g/>
        </g>
    </g>
    <g fill="#000000" fill-opacity="1">
        <g transform="translate(260.886786, 236.87414)">
            <g>
                <path d="M 0.578125 0 L 0.578125 -0.859375 L 0.875 -0.859375 C 1.113281 -0.859375 1.328125 -0.890625 1.515625 -0.953125 C 1.710938 -1.015625 1.863281 -1.144531 1.96875 -1.34375 C 2.082031 -1.539062 2.140625 -1.84375 2.140625 -2.25 L 2.140625 -12.578125 C 2.140625 -12.992188 2.078125 -13.300781 1.953125 -13.5 C 1.835938 -13.707031 1.6875 -13.84375 1.5 -13.90625 C 1.320312 -13.96875 1.113281 -14 0.875 -14 L 0.578125 -14 L 0.578125 -14.84375 L 5.234375 -14.84375 C 6.265625 -14.84375 7.101562 -14.707031 7.75 -14.4375 C 8.394531 -14.164062 8.867188 -13.742188 9.171875 -13.171875 C 9.472656 -12.597656 9.625 -11.851562 9.625 -10.9375 C 9.625 -10.164062 9.515625 -9.515625 9.296875 -8.984375 C 9.078125 -8.453125 8.78125 -8.023438 8.40625 -7.703125 C 8.03125 -7.390625 7.617188 -7.148438 7.171875 -6.984375 L 9.375 -2.515625 C 9.65625 -1.972656 9.921875 -1.5625 10.171875 -1.28125 C 10.429688 -1 10.726562 -0.859375 11.0625 -0.859375 L 11.125 -0.859375 L 11.125 0 L 10.8125 0 C 10.226562 0 9.738281 -0.046875 9.34375 -0.140625 C 8.945312 -0.242188 8.609375 -0.429688 8.328125 -0.703125 C 8.054688 -0.972656 7.8125 -1.363281 7.59375 -1.875 L 5.421875 -6.546875 L 4.078125 -6.546875 L 4.078125 -2.25 C 4.078125 -1.84375 4.128906 -1.539062 4.234375 -1.34375 C 4.335938 -1.144531 4.476562 -1.015625 4.65625 -0.953125 C 4.832031 -0.890625 5.046875 -0.859375 5.296875 -0.859375 L 5.484375 -0.859375 L 5.484375 0 Z M 4.921875 -7.5 C 5.859375 -7.5 6.539062 -7.785156 6.96875 -8.359375 C 7.394531 -8.941406 7.609375 -9.773438 7.609375 -10.859375 C 7.609375 -11.523438 7.519531 -12.082031 7.34375 -12.53125 C 7.175781 -12.976562 6.910156 -13.3125 6.546875 -13.53125 C 6.191406 -13.757812 5.710938 -13.875 5.109375 -13.875 L 4.078125 -13.875 L 4.078125 -7.5 Z M 4.921875 -7.5 "/>
            </g>
        </g>
    </g>
    <g fill="#000000" fill-opacity="1">
        <g transform="translate(271.946585, 236.87414)">
            <g>
                <path d="M 4.796875 0.203125 C 3.578125 0.203125 2.617188 -0.269531 1.921875 -1.21875 C 1.222656 -2.175781 0.875 -3.632812 0.875 -5.59375 C 0.875 -7.53125 1.207031 -8.972656 1.875 -9.921875 C 2.550781 -10.878906 3.546875 -11.359375 4.859375 -11.359375 C 6.066406 -11.359375 7.019531 -10.878906 7.71875 -9.921875 C 8.425781 -8.972656 8.78125 -7.53125 8.78125 -5.59375 C 8.78125 -3.632812 8.441406 -2.175781 7.765625 -1.21875 C 7.097656 -0.269531 6.109375 0.203125 4.796875 0.203125 Z M 4.84375 -0.859375 C 5.351562 -0.859375 5.757812 -1.035156 6.0625 -1.390625 C 6.375 -1.753906 6.59375 -2.285156 6.71875 -2.984375 C 6.851562 -3.679688 6.921875 -4.550781 6.921875 -5.59375 C 6.921875 -7.15625 6.765625 -8.328125 6.453125 -9.109375 C 6.140625 -9.890625 5.601562 -10.28125 4.84375 -10.28125 C 4.070312 -10.28125 3.523438 -9.890625 3.203125 -9.109375 C 2.878906 -8.328125 2.71875 -7.15625 2.71875 -5.59375 C 2.71875 -4.039062 2.878906 -2.863281 3.203125 -2.0625 C 3.535156 -1.257812 4.082031 -0.859375 4.84375 -0.859375 Z M 4.84375 -0.859375 "/>
            </g>
        </g>
    </g>
    <g fill="#000000" fill-opacity="1">
        <g transform="translate(281.592717, 236.87414)">
            <g>
                <path d="M 3.3125 0.203125 C 2.832031 0.203125 2.40625 0.0820312 2.03125 -0.15625 C 1.664062 -0.394531 1.367188 -0.757812 1.140625 -1.25 C 0.910156 -1.75 0.796875 -2.375 0.796875 -3.125 C 0.796875 -4.226562 1.101562 -5.039062 1.71875 -5.5625 C 2.332031 -6.082031 3.269531 -6.367188 4.53125 -6.421875 L 5.890625 -6.484375 L 5.890625 -7.75 C 5.890625 -8.28125 5.851562 -8.734375 5.78125 -9.109375 C 5.707031 -9.492188 5.566406 -9.796875 5.359375 -10.015625 C 5.148438 -10.234375 4.84375 -10.34375 4.4375 -10.34375 C 4.039062 -10.34375 3.742188 -10.25 3.546875 -10.0625 C 3.347656 -9.875 3.207031 -9.609375 3.125 -9.265625 C 3.050781 -8.921875 3.015625 -8.519531 3.015625 -8.0625 C 2.503906 -8.0625 2.117188 -8.171875 1.859375 -8.390625 C 1.609375 -8.609375 1.484375 -8.929688 1.484375 -9.359375 C 1.484375 -9.773438 1.609375 -10.128906 1.859375 -10.421875 C 2.117188 -10.722656 2.476562 -10.953125 2.9375 -11.109375 C 3.40625 -11.273438 3.953125 -11.359375 4.578125 -11.359375 C 5.597656 -11.359375 6.367188 -11.082031 6.890625 -10.53125 C 7.421875 -9.988281 7.6875 -9.054688 7.6875 -7.734375 L 7.6875 -2.34375 C 7.6875 -1.957031 7.722656 -1.65625 7.796875 -1.4375 C 7.867188 -1.226562 7.976562 -1.078125 8.125 -0.984375 C 8.269531 -0.898438 8.46875 -0.859375 8.71875 -0.859375 L 8.78125 -0.859375 L 8.78125 0 L 6.296875 0 L 6.046875 -1.828125 L 5.921875 -1.828125 C 5.691406 -1.441406 5.460938 -1.09375 5.234375 -0.78125 C 5.015625 -0.46875 4.753906 -0.222656 4.453125 -0.046875 C 4.160156 0.117188 3.78125 0.203125 3.3125 0.203125 Z M 3.890625 -0.875 C 4.304688 -0.875 4.660156 -1.007812 4.953125 -1.28125 C 5.253906 -1.550781 5.488281 -1.921875 5.65625 -2.390625 C 5.820312 -2.859375 5.90625 -3.382812 5.90625 -3.96875 L 5.90625 -5.671875 L 4.953125 -5.609375 C 4.378906 -5.585938 3.921875 -5.472656 3.578125 -5.265625 C 3.242188 -5.054688 3.003906 -4.765625 2.859375 -4.390625 C 2.722656 -4.015625 2.65625 -3.550781 2.65625 -3 C 2.65625 -2.5625 2.695312 -2.179688 2.78125 -1.859375 C 2.863281 -1.546875 3 -1.300781 3.1875 -1.125 C 3.375 -0.957031 3.609375 -0.875 3.890625 -0.875 Z M 3.890625 -0.875 "/>
            </g>
        </g>
    </g>
    <g fill="#000000" fill-opacity="1">
        <g transform="translate(291.030957, 236.87414)">
            <g>
                <path d="M 4.15625 0.203125 C 3.445312 0.203125 2.847656 0.00390625 2.359375 -0.390625 C 1.867188 -0.796875 1.492188 -1.425781 1.234375 -2.28125 C 0.984375 -3.132812 0.859375 -4.222656 0.859375 -5.546875 C 0.859375 -6.890625 0.984375 -7.988281 1.234375 -8.84375 C 1.492188 -9.695312 1.875 -10.328125 2.375 -10.734375 C 2.882812 -11.148438 3.5 -11.359375 4.21875 -11.359375 C 4.851562 -11.359375 5.363281 -11.1875 5.75 -10.84375 C 6.132812 -10.507812 6.441406 -10.070312 6.671875 -9.53125 L 6.765625 -9.53125 C 6.742188 -9.84375 6.726562 -10.1875 6.71875 -10.5625 C 6.71875 -10.9375 6.71875 -11.316406 6.71875 -11.703125 L 6.71875 -13.515625 C 6.71875 -13.929688 6.65625 -14.242188 6.53125 -14.453125 C 6.40625 -14.660156 6.238281 -14.796875 6.03125 -14.859375 C 5.832031 -14.921875 5.609375 -14.953125 5.359375 -14.953125 L 5.234375 -14.953125 L 5.234375 -15.8125 L 8.5 -15.8125 L 8.5 -2.3125 C 8.5 -1.90625 8.554688 -1.59375 8.671875 -1.375 C 8.785156 -1.164062 8.9375 -1.023438 9.125 -0.953125 C 9.320312 -0.890625 9.546875 -0.859375 9.796875 -0.859375 L 9.96875 -0.859375 L 9.96875 0 L 7.015625 0 L 6.796875 -1.90625 L 6.765625 -1.90625 C 6.492188 -1.257812 6.15625 -0.742188 5.75 -0.359375 C 5.351562 0.015625 4.820312 0.203125 4.15625 0.203125 Z M 4.609375 -0.9375 C 5.359375 -0.9375 5.894531 -1.351562 6.21875 -2.1875 C 6.550781 -3.03125 6.71875 -4.148438 6.71875 -5.546875 C 6.71875 -7.046875 6.5625 -8.195312 6.25 -9 C 5.945312 -9.8125 5.394531 -10.21875 4.59375 -10.21875 C 4.15625 -10.21875 3.789062 -10.035156 3.5 -9.671875 C 3.21875 -9.304688 3.015625 -8.773438 2.890625 -8.078125 C 2.765625 -7.390625 2.703125 -6.539062 2.703125 -5.53125 C 2.703125 -3.988281 2.847656 -2.835938 3.140625 -2.078125 C 3.441406 -1.316406 3.929688 -0.9375 4.609375 -0.9375 Z M 4.609375 -0.9375 "/>
            </g>
        </g>
    </g>
    <g fill="#000000" fill-opacity="1">
        <g transform="translate(301.279964, 236.87414)">
            <g>
                <path d="M 0.421875 0 L 0.421875 -0.859375 L 0.671875 -0.859375 C 0.921875 -0.859375 1.132812 -0.890625 1.3125 -0.953125 C 1.488281 -1.023438 1.625 -1.164062 1.71875 -1.375 C 1.820312 -1.59375 1.875 -1.914062 1.875 -2.34375 L 1.875 -8.859375 C 1.875 -9.273438 1.820312 -9.585938 1.71875 -9.796875 C 1.613281 -10.003906 1.46875 -10.140625 1.28125 -10.203125 C 1.09375 -10.265625 0.875 -10.296875 0.625 -10.296875 L 0.578125 -10.296875 L 0.578125 -11.140625 L 3.375 -11.140625 L 3.59375 -9.4375 L 3.703125 -9.4375 C 3.984375 -10.144531 4.320312 -10.640625 4.71875 -10.921875 C 5.125 -11.210938 5.625 -11.359375 6.21875 -11.359375 C 6.582031 -11.359375 6.914062 -11.296875 7.21875 -11.171875 C 7.53125 -11.046875 7.804688 -10.832031 8.046875 -10.53125 C 8.285156 -10.238281 8.472656 -9.832031 8.609375 -9.3125 L 8.671875 -9.3125 C 8.953125 -10.09375 9.304688 -10.628906 9.734375 -10.921875 C 10.171875 -11.210938 10.679688 -11.359375 11.265625 -11.359375 C 12.128906 -11.359375 12.800781 -11.03125 13.28125 -10.375 C 13.757812 -9.726562 14 -8.691406 14 -7.265625 L 14 -2.34375 C 14 -1.914062 14.050781 -1.59375 14.15625 -1.375 C 14.257812 -1.164062 14.398438 -1.023438 14.578125 -0.953125 C 14.753906 -0.890625 14.96875 -0.859375 15.21875 -0.859375 L 15.265625 -0.859375 L 15.265625 0 L 12.1875 0 L 12.1875 -7.21875 C 12.1875 -8.113281 12.070312 -8.8125 11.84375 -9.3125 C 11.613281 -9.8125 11.210938 -10.0625 10.640625 -10.0625 C 10.203125 -10.0625 9.847656 -9.914062 9.578125 -9.625 C 9.316406 -9.332031 9.128906 -8.953125 9.015625 -8.484375 C 8.910156 -8.023438 8.859375 -7.519531 8.859375 -6.96875 L 8.859375 -2.34375 C 8.859375 -1.914062 8.90625 -1.59375 9 -1.375 C 9.101562 -1.164062 9.25 -1.023438 9.4375 -0.953125 C 9.625 -0.890625 9.832031 -0.859375 10.0625 -0.859375 L 10.125 -0.859375 L 10.125 0 L 7.078125 0 L 7.078125 -7.21875 C 7.078125 -8.113281 6.960938 -8.8125 6.734375 -9.3125 C 6.503906 -9.8125 6.101562 -10.0625 5.53125 -10.0625 C 5.082031 -10.0625 4.722656 -9.898438 4.453125 -9.578125 C 4.191406 -9.265625 4 -8.847656 3.875 -8.328125 C 3.75 -7.816406 3.6875 -7.265625 3.6875 -6.671875 L 3.6875 -2.25 C 3.6875 -1.832031 3.738281 -1.523438 3.84375 -1.328125 C 3.957031 -1.140625 4.113281 -1.015625 4.3125 -0.953125 C 4.507812 -0.890625 4.726562 -0.859375 4.96875 -0.859375 L 5.015625 -0.859375 L 5.015625 0 Z M 0.421875 0 "/>
            </g>
        </g>
    </g>
    <g fill="#000000" fill-opacity="1">
        <g transform="translate(316.975718, 236.87414)">
            <g>
                <path d="M 3.3125 0.203125 C 2.832031 0.203125 2.40625 0.0820312 2.03125 -0.15625 C 1.664062 -0.394531 1.367188 -0.757812 1.140625 -1.25 C 0.910156 -1.75 0.796875 -2.375 0.796875 -3.125 C 0.796875 -4.226562 1.101562 -5.039062 1.71875 -5.5625 C 2.332031 -6.082031 3.269531 -6.367188 4.53125 -6.421875 L 5.890625 -6.484375 L 5.890625 -7.75 C 5.890625 -8.28125 5.851562 -8.734375 5.78125 -9.109375 C 5.707031 -9.492188 5.566406 -9.796875 5.359375 -10.015625 C 5.148438 -10.234375 4.84375 -10.34375 4.4375 -10.34375 C 4.039062 -10.34375 3.742188 -10.25 3.546875 -10.0625 C 3.347656 -9.875 3.207031 -9.609375 3.125 -9.265625 C 3.050781 -8.921875 3.015625 -8.519531 3.015625 -8.0625 C 2.503906 -8.0625 2.117188 -8.171875 1.859375 -8.390625 C 1.609375 -8.609375 1.484375 -8.929688 1.484375 -9.359375 C 1.484375 -9.773438 1.609375 -10.128906 1.859375 -10.421875 C 2.117188 -10.722656 2.476562 -10.953125 2.9375 -11.109375 C 3.40625 -11.273438 3.953125 -11.359375 4.578125 -11.359375 C 5.597656 -11.359375 6.367188 -11.082031 6.890625 -10.53125 C 7.421875 -9.988281 7.6875 -9.054688 7.6875 -7.734375 L 7.6875 -2.34375 C 7.6875 -1.957031 7.722656 -1.65625 7.796875 -1.4375 C 7.867188 -1.226562 7.976562 -1.078125 8.125 -0.984375 C 8.269531 -0.898438 8.46875 -0.859375 8.71875 -0.859375 L 8.78125 -0.859375 L 8.78125 0 L 6.296875 0 L 6.046875 -1.828125 L 5.921875 -1.828125 C 5.691406 -1.441406 5.460938 -1.09375 5.234375 -0.78125 C 5.015625 -0.46875 4.753906 -0.222656 4.453125 -0.046875 C 4.160156 0.117188 3.78125 0.203125 3.3125 0.203125 Z M 3.890625 -0.875 C 4.304688 -0.875 4.660156 -1.007812 4.953125 -1.28125 C 5.253906 -1.550781 5.488281 -1.921875 5.65625 -2.390625 C 5.820312 -2.859375 5.90625 -3.382812 5.90625 -3.96875 L 5.90625 -5.671875 L 4.953125 -5.609375 C 4.378906 -5.585938 3.921875 -5.472656 3.578125 -5.265625 C 3.242188 -5.054688 3.003906 -4.765625 2.859375 -4.390625 C 2.722656 -4.015625 2.65625 -3.550781 2.65625 -3 C 2.65625 -2.5625 2.695312 -2.179688 2.78125 -1.859375 C 2.863281 -1.546875 3 -1.300781 3.1875 -1.125 C 3.375 -0.957031 3.609375 -0.875 3.890625 -0.875 Z M 3.890625 -0.875 "/>
            </g>
        </g>
    </g>
    <g fill="#000000" fill-opacity="1">
        <g transform="translate(326.413958, 236.87414)">
            <g>
                <path d="M 0.296875 4.90625 L 0.296875 4.0625 L 0.421875 4.0625 C 0.640625 4.0625 0.84375 4.023438 1.03125 3.953125 C 1.226562 3.878906 1.390625 3.734375 1.515625 3.515625 C 1.640625 3.304688 1.703125 2.988281 1.703125 2.5625 L 1.703125 -8.875 C 1.703125 -9.289062 1.644531 -9.597656 1.53125 -9.796875 C 1.425781 -10.003906 1.28125 -10.140625 1.09375 -10.203125 C 0.90625 -10.265625 0.691406 -10.296875 0.453125 -10.296875 L 0.25 -10.296875 L 0.25 -11.140625 L 3.21875 -11.140625 L 3.4375 -9.375 L 3.5 -9.375 C 3.726562 -9.957031 4.039062 -10.429688 4.4375 -10.796875 C 4.84375 -11.171875 5.367188 -11.359375 6.015625 -11.359375 C 7.085938 -11.359375 7.910156 -10.894531 8.484375 -9.96875 C 9.066406 -9.050781 9.359375 -7.59375 9.359375 -5.59375 C 9.359375 -3.582031 9.066406 -2.109375 8.484375 -1.171875 C 7.910156 -0.234375 7.070312 0.234375 5.96875 0.234375 C 5.375 0.234375 4.878906 0.0625 4.484375 -0.28125 C 4.097656 -0.632812 3.789062 -1.101562 3.5625 -1.6875 L 3.5 -1.6875 C 3.507812 -1.382812 3.515625 -1.035156 3.515625 -0.640625 C 3.523438 -0.242188 3.53125 0.195312 3.53125 0.6875 L 3.53125 2.65625 C 3.53125 3.0625 3.59375 3.363281 3.71875 3.5625 C 3.84375 3.769531 4 3.90625 4.1875 3.96875 C 4.382812 4.03125 4.585938 4.0625 4.796875 4.0625 L 5.15625 4.0625 L 5.15625 4.90625 Z M 5.609375 -0.921875 C 6.304688 -0.921875 6.796875 -1.332031 7.078125 -2.15625 C 7.359375 -2.988281 7.5 -4.160156 7.5 -5.671875 C 7.5 -7.160156 7.359375 -8.289062 7.078125 -9.0625 C 6.796875 -9.84375 6.304688 -10.234375 5.609375 -10.234375 C 5.066406 -10.234375 4.644531 -10.046875 4.34375 -9.671875 C 4.050781 -9.304688 3.84375 -8.785156 3.71875 -8.109375 C 3.59375 -7.429688 3.53125 -6.613281 3.53125 -5.65625 C 3.53125 -4.65625 3.59375 -3.800781 3.71875 -3.09375 C 3.84375 -2.382812 4.050781 -1.84375 4.34375 -1.46875 C 4.644531 -1.101562 5.066406 -0.921875 5.609375 -0.921875 Z M 5.609375 -0.921875 "/>
            </g>
        </g>
    </g>
</svg>